<?xml version="1.0" encoding="UTF-8"?>
<svg version="1.1" xmlns="http://www.w3.org/2000/svg" width="1024" height="1024">
<path d="M0 0 C337.92 0 675.84 0 1024 0 C1024 337.92 1024 675.84 1024 1024 C686.08 1024 348.16 1024 0 1024 C0 686.08 0 348.16 0 0 Z " fill="#11100C" transform="translate(0,0)"/>
<path d="M0 0 C3.25507316 0.01071068 6.5095919 0.00003505 9.76464844 -0.01269531 C29.67241928 -0.02808369 49.24582816 1.37976696 68.82714844 5.01074219 C69.54500519 5.14112885 70.26286194 5.2715155 71.00247192 5.40585327 C102.19714525 11.08544286 131.89310449 20.40545581 160.88964844 33.26074219 C162.19844971 33.83381104 162.19844971 33.83381104 163.53369141 34.41845703 C185.16189444 43.9693729 205.80850597 56.31526891 224.88964844 70.26074219 C225.54964844 70.73962891 226.20964844 71.21851563 226.88964844 71.71191406 C236.22363268 78.50910524 245.23151366 85.61786598 253.88964844 93.26074219 C254.63303467 93.91655273 255.3764209 94.57236328 256.14233398 95.24804688 C262.26302121 100.69901322 268.15989338 106.33789507 273.95214844 112.13574219 C274.8304834 113.01488281 275.70881836 113.89402344 276.61376953 114.79980469 C282.45825201 120.69992813 287.80636964 126.6939759 292.88964844 133.26074219 C294.46930035 135.11804623 296.05288101 136.97201352 297.63964844 138.82324219 C304.16479467 146.64531189 310.04653781 154.92246541 315.88964844 163.26074219 C316.33840332 163.89882813 316.7871582 164.53691406 317.24951172 165.19433594 C335.06178246 190.68939064 349.44239613 219.00204039 359.88964844 248.26074219 C360.50235596 249.96157959 360.50235596 249.96157959 361.12744141 251.69677734 C369.88936032 276.25735505 376.63662165 301.32997208 379.88964844 327.26074219 C380.03394287 328.39576172 380.03394287 328.39576172 380.18115234 329.55371094 C382.20855218 345.82742794 383.12758709 362.05503272 383.13964844 378.44824219 C383.14066055 379.70456451 383.14066055 379.70456451 383.14169312 380.98626709 C383.06444745 442.26445838 370.12338399 504.00539463 340.88964844 558.26074219 C340.13723877 559.65897217 340.13723877 559.65897217 339.36962891 561.08544922 C331.86402085 574.94111306 324.01108922 588.40521159 314.88964844 601.26074219 C314.33277344 602.04674805 313.77589844 602.83275391 313.20214844 603.64257812 C306.03105933 613.69891012 298.52656043 623.31954281 290.35400391 632.57714844 C288.79770989 634.36644546 287.2799108 636.18336241 285.76855469 638.01074219 C285.26412842 638.61869629 284.75970215 639.22665039 284.23999023 639.85302734 C283.27761623 641.01590257 282.31924313 642.18210396 281.36547852 643.35205078 C280.25003805 644.69209209 279.07489841 645.98203165 277.88964844 647.26074219 C277.22964844 647.26074219 276.56964844 647.26074219 275.88964844 647.26074219 C275.62555176 647.85008545 275.36145508 648.43942871 275.08935547 649.04663086 C273.84387791 651.34521368 272.5441263 652.85013735 270.69433594 654.68652344 C269.74300781 655.63495117 269.74300781 655.63495117 268.77246094 656.60253906 C268.10988281 657.25287109 267.44730469 657.90320313 266.76464844 658.57324219 C266.12527344 659.21197266 265.48589844 659.85070312 264.82714844 660.50878906 C237.47715843 687.61164061 205.01623945 709.66733699 170.88964844 727.26074219 C170.05175781 727.69338379 169.21386719 728.12602539 168.35058594 728.57177734 C136.62826119 744.74991436 102.82023906 754.87717547 67.88964844 761.26074219 C66.49625244 761.51597656 66.49625244 761.51597656 65.07470703 761.77636719 C17.94909861 770.05434648 -32.67759756 767.98302758 -79.11035156 757.26074219 C-80.0882666 757.04047363 -81.06618164 756.82020508 -82.07373047 756.59326172 C-106.41153806 751.0694178 -129.45309725 742.6608591 -152.11035156 732.26074219 C-153.47764404 731.63981689 -153.47764404 731.63981689 -154.87255859 731.00634766 C-187.97873154 715.91842307 -218.67653192 695.14419902 -245.52832031 670.59667969 C-247.61001956 668.71338748 -249.71771183 666.87698984 -251.84472656 665.04589844 C-256.48200986 660.99621053 -260.83192888 656.68625608 -265.17285156 652.32324219 C-266.31850586 651.18338867 -266.31850586 651.18338867 -267.48730469 650.02050781 C-272.23591969 645.26376858 -276.74109274 640.36629318 -281.11035156 635.26074219 C-281.97917969 634.27332031 -282.84800781 633.28589844 -283.74316406 632.26855469 C-345.05333631 561.34863757 -374.08408604 470.50829855 -374.36035156 377.82324219 C-374.36579987 376.70390289 -374.37124817 375.5845636 -374.37686157 374.43130493 C-374.42463305 361.22883979 -374.03734892 348.27975557 -372.35412598 335.17861938 C-372.02327629 332.57568394 -371.74884556 329.96732091 -371.46972656 327.35839844 C-364.70481138 269.64975836 -342.5461662 212.79112169 -309.11035156 165.26074219 C-308.69156738 164.65939453 -308.2727832 164.05804688 -307.84130859 163.43847656 C-302.53195278 155.82323998 -296.9974538 148.44184116 -291.11035156 141.26074219 C-290.4490625 140.42542969 -289.78777344 139.59011719 -289.10644531 138.72949219 C-283.06936341 131.16924229 -276.51370472 124.16819776 -269.87255859 117.140625 C-268.17339993 115.32800077 -266.49525029 113.49861657 -264.82519531 111.65917969 C-260.12170764 106.47969584 -255.44910668 101.40308353 -250.06738281 96.90917969 C-247.86562252 95.05460316 -245.77968589 93.0973997 -243.67285156 91.13574219 C-237.16701564 85.26949689 -230.1870827 80.0334893 -223.17089844 74.79931641 C-221.90299514 73.85259525 -220.6379972 72.90194991 -219.37792969 71.94482422 C-173.01813334 36.74939743 -116.28103035 14.95587886 -59.29785156 4.82324219 C-58.63230255 4.70340973 -57.96675354 4.58357727 -57.28103638 4.46011353 C-38.2480425 1.08140729 -19.3151042 -0.07524614 0 0 Z " fill="#11100C" transform="translate(508.1103515625,128.7392578125)"/>
<path d="M0 0 C3.25507316 0.01071068 6.5095919 0.00003505 9.76464844 -0.01269531 C29.67241928 -0.02808369 49.24582816 1.37976696 68.82714844 5.01074219 C69.54500519 5.14112885 70.26286194 5.2715155 71.00247192 5.40585327 C102.19714525 11.08544286 131.89310449 20.40545581 160.88964844 33.26074219 C162.19844971 33.83381104 162.19844971 33.83381104 163.53369141 34.41845703 C185.16189444 43.9693729 205.80850597 56.31526891 224.88964844 70.26074219 C225.54964844 70.73962891 226.20964844 71.21851563 226.88964844 71.71191406 C236.22363268 78.50910524 245.23151366 85.61786598 253.88964844 93.26074219 C254.63303467 93.91655273 255.3764209 94.57236328 256.14233398 95.24804688 C262.26302121 100.69901322 268.15989338 106.33789507 273.95214844 112.13574219 C274.8304834 113.01488281 275.70881836 113.89402344 276.61376953 114.79980469 C282.45825201 120.69992813 287.80636964 126.6939759 292.88964844 133.26074219 C294.46930035 135.11804623 296.05288101 136.97201352 297.63964844 138.82324219 C304.16479467 146.64531189 310.04653781 154.92246541 315.88964844 163.26074219 C316.33840332 163.89882813 316.7871582 164.53691406 317.24951172 165.19433594 C335.06178246 190.68939064 349.44239613 219.00204039 359.88964844 248.26074219 C360.50235596 249.96157959 360.50235596 249.96157959 361.12744141 251.69677734 C369.88936032 276.25735505 376.63662165 301.32997208 379.88964844 327.26074219 C380.03394287 328.39576172 380.03394287 328.39576172 380.18115234 329.55371094 C382.20855218 345.82742794 383.12758709 362.05503272 383.13964844 378.44824219 C383.14066055 379.70456451 383.14066055 379.70456451 383.14169312 380.98626709 C383.06444745 442.26445838 370.12338399 504.00539463 340.88964844 558.26074219 C340.13723877 559.65897217 340.13723877 559.65897217 339.36962891 561.08544922 C331.86402085 574.94111306 324.01108922 588.40521159 314.88964844 601.26074219 C314.33277344 602.04674805 313.77589844 602.83275391 313.20214844 603.64257812 C306.03105933 613.69891012 298.52656043 623.31954281 290.35400391 632.57714844 C288.79770989 634.36644546 287.2799108 636.18336241 285.76855469 638.01074219 C285.26412842 638.61869629 284.75970215 639.22665039 284.23999023 639.85302734 C283.27761623 641.01590257 282.31924313 642.18210396 281.36547852 643.35205078 C280.25003805 644.69209209 279.07489841 645.98203165 277.88964844 647.26074219 C277.22964844 647.26074219 276.56964844 647.26074219 275.88964844 647.26074219 C275.62555176 647.85008545 275.36145508 648.43942871 275.08935547 649.04663086 C273.84387791 651.34521368 272.5441263 652.85013735 270.69433594 654.68652344 C269.74300781 655.63495117 269.74300781 655.63495117 268.77246094 656.60253906 C268.10988281 657.25287109 267.44730469 657.90320313 266.76464844 658.57324219 C266.12527344 659.21197266 265.48589844 659.85070312 264.82714844 660.50878906 C237.47715843 687.61164061 205.01623945 709.66733699 170.88964844 727.26074219 C170.05175781 727.69338379 169.21386719 728.12602539 168.35058594 728.57177734 C136.62826119 744.74991436 102.82023906 754.87717547 67.88964844 761.26074219 C66.49625244 761.51597656 66.49625244 761.51597656 65.07470703 761.77636719 C17.94909861 770.05434648 -32.67759756 767.98302758 -79.11035156 757.26074219 C-80.0882666 757.04047363 -81.06618164 756.82020508 -82.07373047 756.59326172 C-106.41153806 751.0694178 -129.45309725 742.6608591 -152.11035156 732.26074219 C-153.47764404 731.63981689 -153.47764404 731.63981689 -154.87255859 731.00634766 C-187.97873154 715.91842307 -218.67653192 695.14419902 -245.52832031 670.59667969 C-247.61001956 668.71338748 -249.71771183 666.87698984 -251.84472656 665.04589844 C-256.48200986 660.99621053 -260.83192888 656.68625608 -265.17285156 652.32324219 C-266.31850586 651.18338867 -266.31850586 651.18338867 -267.48730469 650.02050781 C-272.23591969 645.26376858 -276.74109274 640.36629318 -281.11035156 635.26074219 C-281.97917969 634.27332031 -282.84800781 633.28589844 -283.74316406 632.26855469 C-345.05333631 561.34863757 -374.08408604 470.50829855 -374.36035156 377.82324219 C-374.36579987 376.70390289 -374.37124817 375.5845636 -374.37686157 374.43130493 C-374.42463305 361.22883979 -374.03734892 348.27975557 -372.35412598 335.17861938 C-372.02327629 332.57568394 -371.74884556 329.96732091 -371.46972656 327.35839844 C-364.70481138 269.64975836 -342.5461662 212.79112169 -309.11035156 165.26074219 C-308.69156738 164.65939453 -308.2727832 164.05804688 -307.84130859 163.43847656 C-302.53195278 155.82323998 -296.9974538 148.44184116 -291.11035156 141.26074219 C-290.4490625 140.42542969 -289.78777344 139.59011719 -289.10644531 138.72949219 C-283.06936341 131.16924229 -276.51370472 124.16819776 -269.87255859 117.140625 C-268.17339993 115.32800077 -266.49525029 113.49861657 -264.82519531 111.65917969 C-260.12170764 106.47969584 -255.44910668 101.40308353 -250.06738281 96.90917969 C-247.86562252 95.05460316 -245.77968589 93.0973997 -243.67285156 91.13574219 C-237.16701564 85.26949689 -230.1870827 80.0334893 -223.17089844 74.79931641 C-221.90299514 73.85259525 -220.6379972 72.90194991 -219.37792969 71.94482422 C-173.01813334 36.74939743 -116.28103035 14.95587886 -59.29785156 4.82324219 C-58.63230255 4.70340973 -57.96675354 4.58357727 -57.28103638 4.46011353 C-38.2480425 1.08140729 -19.3151042 -0.07524614 0 0 Z M-8.40527344 16.38525391 C-54.58388523 18.33112164 -99.91627185 28.01330583 -142.11035156 47.26074219 C-143.03428711 47.67630371 -143.95822266 48.09186523 -144.91015625 48.52001953 C-168.80665588 59.33818857 -191.24462375 72.34112327 -212.11035156 88.26074219 C-213.32056114 89.16536266 -214.53147225 90.06904556 -215.74316406 90.97167969 C-221.60777605 95.37326659 -227.21347026 99.98086091 -232.59863281 104.95996094 C-234.62072194 106.81223231 -236.67141056 108.6035664 -238.75097656 110.38964844 C-243.89645152 114.88150089 -248.718027 119.68439983 -253.54785156 124.51074219 C-254.43794922 125.38859375 -255.32804687 126.26644531 -256.24511719 127.17089844 C-261.52171834 132.43593655 -266.384823 137.8687261 -271.03759766 143.69165039 C-272.89418238 145.99280952 -274.80723893 148.21019237 -276.77832031 150.41308594 C-280.26660431 154.36312839 -283.36703333 158.53350661 -286.42285156 162.82324219 C-286.98407715 163.60771729 -287.54530273 164.39219238 -288.12353516 165.20043945 C-300.61760897 182.74791674 -311.83931579 200.86713284 -321.16748047 220.31005859 C-322.1026295 222.2447662 -323.06322649 224.16504546 -324.02832031 226.08496094 C-364.5617403 307.91370731 -367.76636204 409.85342384 -338.15127563 500.11355591 C-322.39038513 546.21306824 -298.4126141 589.61784581 -265.44628906 625.67871094 C-264.17384903 627.08520402 -262.90758127 628.4978248 -261.67480469 629.93920898 C-256.81874238 635.60534023 -251.63456948 640.92268748 -246.35986328 646.1965332 C-244.87141919 647.68715834 -243.3911788 649.18561236 -241.91113281 650.68457031 C-235.64034588 656.99255445 -229.11201535 662.75787844 -222.11035156 668.26074219 C-221.42763184 668.80802979 -220.74491211 669.35531738 -220.04150391 669.91918945 C-175.34389035 705.6157645 -123.54212018 731.0985502 -67.48193359 742.765625 C-65.33210026 743.21444752 -63.18784704 743.68299488 -61.04394531 744.15917969 C-54.47040646 745.56729724 -47.91003299 746.62240659 -41.23535156 747.38574219 C-40.24776855 747.49921997 -40.24776855 747.49921997 -39.24023438 747.61499023 C-25.11983554 749.09632653 -10.98324628 749.43779868 3.20214844 749.38574219 C4.01246521 749.38352661 4.82278198 749.38131104 5.65765381 749.37902832 C80.46815091 749.13982315 151.35578548 726.43634588 211.88964844 682.26074219 C212.49131836 681.82632813 213.09298828 681.39191406 213.71289062 680.94433594 C225.63768798 672.32605663 236.61654529 662.65165258 247.38378906 652.64892578 C248.93199309 651.22170657 250.49443711 649.81171903 252.06152344 648.40527344 C257.0050813 643.95744627 261.78649283 639.50524756 266.06542969 634.39746094 C267.89519697 632.25424315 269.80264518 630.19751348 271.73071289 628.14282227 C323.57993132 572.6818579 355.6901304 497.28892703 363.88964844 422.26074219 C363.9940625 421.35598145 364.09847656 420.4512207 364.20605469 419.51904297 C367.51570153 390.31350429 365.91454434 361.38978285 362.88964844 332.26074219 C362.79345215 331.28669434 362.69725586 330.31264648 362.59814453 329.30908203 C360.02632167 304.45781441 352.75650533 278.5571337 343.88964844 255.26074219 C343.30642822 253.72643555 343.30642822 253.72643555 342.71142578 252.16113281 C327.78211044 213.37569503 307.52594398 178.16336414 280.88964844 146.26074219 C280.10074219 145.28492188 279.31183594 144.30910156 278.49902344 143.30371094 C271.74357059 135.06811648 264.33517604 127.49116202 256.82714844 119.94824219 C256.3205368 119.43645416 255.81392517 118.92466614 255.29196167 118.39736938 C248.49425304 111.54498124 241.44880553 105.28106808 233.88964844 99.26074219 C232.07456814 97.70124034 230.26148518 96.13940407 228.45214844 94.57324219 C214.64078651 83.06675178 199.40985621 73.28458223 183.88964844 64.26074219 C183.12249512 63.81134277 182.3553418 63.36194336 181.56494141 62.89892578 C124.68245286 29.81624883 57.20892926 13.90576047 -8.40527344 16.38525391 Z " fill="#F0CF85" transform="translate(508.1103515625,128.7392578125)"/>
<path d="M0 0 C0.69036346 0.00087616 1.38072693 0.00175232 2.0920105 0.00265503 C25.30856338 0.10001814 44.2558611 7.48830601 61.24609375 23.55859375 C74.26687402 37.39158643 81.94216999 55.80395393 84.9375 74.375 C85.12054688 75.41398437 85.30359375 76.45296875 85.4921875 77.5234375 C87.17434458 92.07262067 86.84918132 107.23537272 82.9375 121.375 C82.67066406 122.44105469 82.40382813 123.50710938 82.12890625 124.60546875 C78.2670528 138.69694288 71.3049934 151.22322214 61.9375 162.375 C61.12925781 163.35339844 61.12925781 163.35339844 60.3046875 164.3515625 C48.17236519 177.70321369 28.94645523 185.25860511 11.32861328 186.66259766 C7.71365767 186.77468548 4.1163892 186.79177865 0.5 186.75 C-0.76900146 186.74057373 -2.03800293 186.73114746 -3.34545898 186.72143555 C-25.15669313 186.36998021 -44.17684357 180.04115991 -59.70947266 164.2668457 C-78.66877638 144.07106565 -86.01854922 115.94014638 -85.28125 88.80078125 C-84.14856684 62.36961971 -74.08143693 37.22205395 -54.56640625 19.05078125 C-45.58415129 11.50568709 -35.35601859 5.625931 -24.0625 2.375 C-23.46687256 2.19839844 -22.87124512 2.02179688 -22.25756836 1.83984375 C-14.92884888 -0.08176829 -7.53251016 -0.02323082 0 0 Z " fill="#ECC779" transform="translate(343.0625,327.625)"/>
<path d="M0 0 C13.86 0 27.72 0 42 0 C51.92652846 11.8838721 51.92652846 11.8838721 53.61328125 17.28515625 C55.81171087 23.6636087 58.70639055 29.22895803 62.0625 35.0625 C63.05301724 36.88279121 64.03869529 38.70572397 65.01953125 40.53125 C68.02895064 46.08039343 71.13079397 51.57450561 74.25 57.0625 C79.87370909 66.96487835 85.39576992 76.92089715 90.88183594 86.89990234 C94.34924645 93.2051832 97.83272933 99.50058909 101.3515625 105.77734375 C102.05490094 107.03415133 102.75818954 108.2909868 103.46142578 109.54785156 C104.47341268 111.35635807 105.48675877 113.16402242 106.50482178 114.96911621 C107.43397452 116.61666563 108.35775416 118.26724184 109.28125 119.91796875 C109.80783203 120.85406982 110.33441406 121.7901709 110.87695312 122.75463867 C112 125 112 125 112 127 C112.66 127 113.32 127 114 127 C114 85.42 114 43.84 114 1 C125.22 1 136.44 1 148 1 C148 59.41 148 117.82 148 178 C134.47 178 120.94 178 107 178 C101.94331679 169.78288978 97.02725508 161.61971234 92.375 153.1875 C87.67805091 144.73400829 82.89878578 136.33812442 78 128 C73.27209136 119.95070261 68.65670405 111.84880192 64.125 103.6875 C58.40217163 93.38754975 52.46261817 83.23203201 46.41650391 73.11987305 C45.78276855 72.05937744 45.1490332 70.99888184 44.49609375 69.90625 C43.94107178 68.98134766 43.3860498 68.05644531 42.81420898 67.10351562 C40.4776332 63.10640199 38.24850599 59.04731079 36 55 C35.67 95.59 35.34 136.18 35 178 C23.45 178 11.9 178 0 178 C0 119.26 0 60.52 0 0 Z " fill="#EEC97A" transform="translate(453,331)"/>
<path d="M0 0 C41.58 0 83.16 0 126 0 C126 9.9 126 19.8 126 30 C95.97 30 65.94 30 35 30 C35 43.86 35 57.72 35 72 C62.39 72 89.78 72 118 72 C118 81.9 118 91.8 118 102 C90.61 102 63.22 102 35 102 C35 117.18 35 132.36 35 148 C65.69 148 96.38 148 128 148 C129.96551466 157.82757328 129.59943242 167.98581056 130 178 C87.1 178 44.2 178 0 178 C0 119.26 0 60.52 0 0 Z " fill="#F3CF7F" transform="translate(632,331)"/>
<path d="M0 0 C1 2 2 4 3 6 C4.31774196 6.39044206 5.65667272 6.70955086 7 7 C9.00382009 7.65509503 11.00458132 8.31974363 13 9 C13.33 8.01 13.66 7.02 14 6 C14.66 6 15.32 6 16 6 C16.33 8.31 16.66 10.62 17 13 C16.34 13 15.68 13 15 13 C15.33 13.66 15.66 14.32 16 15 C16.66 14.67 17.32 14.34 18 14 C18.67099984 16.60311992 19.33695338 19.20735398 20 21.8125 C20.19078125 22.55048828 20.3815625 23.28847656 20.578125 24.04882812 C21.35262914 27.10535341 22 29.83373478 22 33 C22.66 33 23.32 33 24 33 C24.27561768 33.86351074 24.55123535 34.72702148 24.83520508 35.61669922 C41.59699487 87.81286425 65.38126175 136.6354415 102.6640625 177.41796875 C103.94205152 178.83059541 105.21371969 180.24944736 106.453125 181.69604492 C111.17761002 187.20211314 116.19343706 192.37961878 121.32324219 197.50854492 C122.73919947 198.92668284 124.14698289 200.35296665 125.5546875 201.77929688 C131.72309822 207.96059425 138.14122135 213.59922519 145 219 C145.68336426 219.54793213 146.36672852 220.09586426 147.07080078 220.66040039 C191.77433201 256.35234116 243.56516323 281.83716948 299.62841797 293.50488281 C301.7782513 293.95370534 303.92250452 294.42225269 306.06640625 294.8984375 C312.6399451 296.30655505 319.20031857 297.3616644 325.875 298.125 C326.53338867 298.20065186 327.19177734 298.27630371 327.87011719 298.35424805 C341.99051602 299.83558434 356.12710528 300.17705649 370.3125 300.125 C371.12281677 300.12278442 371.93313354 300.12056885 372.76800537 300.11828613 C404.80648824 300.01584368 435.67458211 296.39683546 466.6328125 287.875 C470.55783514 286.85504052 474.48337686 286.10867585 478.48046875 285.4375 C482.35355654 284.76496382 486.16912419 283.8792174 490 283 C490.12375 284.11375 490.2475 285.2275 490.375 286.375 C490.6465813 290.03103677 490.6465813 290.03103677 493 292 C492.625 294.625 492.625 294.625 492 297 C483.66022579 299.9295171 475.29667642 302.5547482 466.75 304.8125 C465.51769653 305.14060669 465.51769653 305.14060669 464.26049805 305.4753418 C461.04245972 306.31017061 458.34350718 307 455 307 C455 307.66 455 308.32 455 309 C450.8137367 309.79829582 446.62577772 310.58734714 442.4375 311.375 C441.27541016 311.59671875 440.11332031 311.8184375 438.91601562 312.046875 C424.74955896 314.7006465 410.77878845 316.31062407 396.40209961 317.00537109 C393.936247 317.12506082 391.47110548 317.25518028 389.00585938 317.38671875 C354.80379047 319.15623012 321.38684212 316.70971391 288 309 C287.02208496 308.77973145 286.04416992 308.55946289 285.03662109 308.33251953 C260.69881351 302.80867561 237.65725431 294.40011691 215 284 C213.63270752 283.37907471 213.63270752 283.37907471 212.23779297 282.74560547 C179.13162002 267.65768088 148.43381964 246.88345684 121.58203125 222.3359375 C119.50033201 220.45264529 117.39263973 218.61624766 115.265625 216.78515625 C110.6283417 212.73546834 106.27842269 208.4255139 101.9375 204.0625 C101.17373047 203.30259766 100.40996094 202.54269531 99.62304688 201.75976562 C94.87443188 197.00302639 90.36925882 192.10555099 86 187 C85.13117188 186.01257813 84.26234375 185.02515625 83.3671875 184.0078125 C41.93983791 136.08714793 1.12405572 64.68429738 0 0 Z " fill="#ECC97D" transform="translate(141,577)"/>
<path d="M0 0 C0.74910645 0.00821777 1.49821289 0.01643555 2.27001953 0.02490234 C14.22486521 0.26539567 24.43590761 3.06017912 33.4375 11.4375 C41.40727144 20.18899543 45.52748632 30.02948266 48.6875 41.25 C48.935 42.10207031 49.1825 42.95414062 49.4375 43.83203125 C54.22096228 63.33128373 50.51163082 89.01480344 40.19140625 106.12890625 C33.31644962 115.82527365 25.77429813 122.88739222 14.078125 125.74609375 C-0.20804753 127.86926916 -13.57655421 126.93105938 -25.9296875 119.03125 C-38.65693381 109.51711177 -43.98425734 94.75622343 -46.22680664 79.54199219 C-49.12496694 57.87960367 -47.20734339 34.5132624 -34.00390625 16.2421875 C-24.93407382 5.55947493 -14.10110856 -0.18801478 0 0 Z " fill="#11100C" transform="translate(342.3125,357.75)"/>
<path d="M0 0 C1.24112549 0.00737183 1.24112549 0.00737183 2.50732422 0.01489258 C15.03416767 0.25302228 25.70430338 3.45156924 35 12.0625 C41.33866882 18.7294664 43.79210495 26.47910921 43.84521484 35.52709961 C43.85547699 36.78618637 43.86573914 38.04527313 43.87631226 39.34251404 C43.87975018 40.01350065 43.8831881 40.68448727 43.88673019 41.37580681 C43.89859362 43.49270083 43.91807044 45.60939757 43.93984985 47.72621155 C44.00117618 53.74424478 44.0552084 59.76226094 44.08886719 65.78051758 C44.11004019 69.46820561 44.14552766 73.15553757 44.18962479 76.84301949 C44.2036181 78.23614822 44.21246874 79.62934001 44.21567917 81.02253532 C44.23916146 90.24665617 45.31945689 98.38809975 47.6875 107.3125 C40.7575 107.3125 33.8275 107.3125 26.6875 107.3125 C24.55459633 102.33572476 23.30579553 99.38252337 22.6875 94.3125 C21.86572266 95.43591797 21.86572266 95.43591797 21.02734375 96.58203125 C18.61400719 99.39826206 16.39341085 101.05989205 13.25 103 C12.32316406 103.58136719 11.39632812 104.16273438 10.44140625 104.76171875 C0.32022004 110.46116687 -12.89690092 111.15493235 -24.1015625 108.37109375 C-33.07347285 105.08139329 -39.55174701 100.7366693 -44.3125 92.3125 C-48.1710566 83.74650435 -48.45200041 75.18762617 -45.3125 66.3125 C-40.52916121 56.8087611 -33.4031371 51.44030144 -23.41796875 48.12109375 C-8.24716896 44.17096097 8.09321619 44.09624645 23.6875 44.3125 C22.83602665 30.24197177 22.83602665 30.24197177 15.1796875 18.953125 C8.62280488 14.66027808 -0.82182921 15.39853426 -8.3125 16.3125 C-13.6810939 17.7446356 -17.39728507 20.56177938 -20.3125 25.3125 C-21.3025 27.9525 -22.2925 30.5925 -23.3125 33.3125 C-29.9125 33.3125 -36.5125 33.3125 -43.3125 33.3125 C-42.78546228 23.82582107 -41.22519415 17.80072249 -34.25 11.125 C-24.35607493 2.85569317 -12.66373126 -0.0898414 0 0 Z " fill="#EBC77A" transform="translate(630.3125,587.6875)"/>
<path d="M0 0 C7.89022773 6.40028325 11.51607849 14.46499243 13.44140625 24.3046875 C13.60841517 27.00259883 13.69646056 29.58920458 13.66845703 32.28125 C13.66874908 33.03344315 13.66904114 33.78563629 13.66934204 34.56062317 C13.66796209 37.01710029 13.65246477 39.47326416 13.63671875 41.9296875 C13.63298386 43.64461095 13.63013914 45.35953654 13.62814331 47.07446289 C13.62054434 51.56579587 13.60092834 56.0569974 13.57873535 60.54827881 C13.55819603 65.14024071 13.54912437 69.73222405 13.5390625 74.32421875 C13.51767857 83.31777508 13.48252729 92.31119974 13.44140625 101.3046875 C6.84140625 101.3046875 0.24140625 101.3046875 -6.55859375 101.3046875 C-6.56793945 99.14043213 -6.57728516 96.97617676 -6.58691406 94.74633789 C-6.62078683 87.56970198 -6.67639258 80.39335051 -6.74249649 73.21694279 C-6.78188862 68.86881637 -6.81411735 64.52088996 -6.82958984 60.17260742 C-6.84481126 55.97076265 -6.87935286 51.76946805 -6.92690277 47.56786919 C-6.94166033 45.97048176 -6.94963152 44.37301575 -6.9504776 42.77556038 C-6.96113292 32.73896416 -7.28649624 24.47617396 -13.93359375 16.4296875 C-21.05024343 10.66859014 -27.69461251 10.40040242 -36.55859375 11.3046875 C-43.33515166 13.19244292 -49.14791337 16.69486865 -52.80859375 22.8046875 C-55.3435488 27.8745976 -55.69345259 31.59902853 -55.76391602 37.27636719 C-55.77876541 38.31599861 -55.77876541 38.31599861 -55.79391479 39.37663269 C-55.82541794 41.65990828 -55.85024277 43.94320464 -55.875 46.2265625 C-55.8955792 47.8126885 -55.91657593 49.39880914 -55.93797302 50.98492432 C-55.99309396 55.15398811 -56.04254712 59.32310058 -56.09082031 63.49224854 C-56.14110831 67.74878253 -56.19675624 72.00524608 -56.25195312 76.26171875 C-56.35941264 84.60931698 -56.46038909 92.95697525 -56.55859375 101.3046875 C-63.15859375 101.3046875 -69.75859375 101.3046875 -76.55859375 101.3046875 C-76.55859375 66.6546875 -76.55859375 32.0046875 -76.55859375 -3.6953125 C-69.95859375 -3.6953125 -63.35859375 -3.6953125 -56.55859375 -3.6953125 C-56.06359375 3.2346875 -56.06359375 3.2346875 -55.55859375 10.3046875 C-54.48609375 8.9434375 -53.41359375 7.5821875 -52.30859375 6.1796875 C-39.76054953 -8.02649113 -15.70782751 -10.40793457 0 0 Z " fill="#E6BE6F" transform="translate(386.55859375,593.6953125)"/>
<path d="M0 0 C6.25080077 4.82963904 10.06077393 10.7546612 11.4609375 18.57421875 C11.7089702 20.70931102 11.86380118 22.85486851 12 25 C6.06 25 0.12 25 -6 25 C-6.556875 23.2675 -7.11375 21.535 -7.6875 19.75 C-9.35179032 15.16879094 -10.64442643 12.50445481 -15 10 C-15.52851563 9.64679687 -16.05703125 9.29359375 -16.6015625 8.9296875 C-20.30961823 7.49236297 -23.93380704 7.67158242 -27.875 7.6875 C-28.66519531 7.67138672 -29.45539063 7.65527344 -30.26953125 7.63867188 C-36.4085124 7.63356457 -40.56497163 8.89402952 -45.3125 13 C-47.61723825 15.73154162 -47.97854149 17.77253979 -48.3125 21.3125 C-47.93004251 25.82549836 -47.00311944 27.62149063 -44 31 C-37.47730797 34.89257427 -31.17815735 36.15680237 -23.75 37.4375 C0.46504773 41.98428493 0.46504773 41.98428493 9 52 C14.15193893 60.15598496 15.40632601 68.51903977 13.3515625 77.98828125 C10.57849501 86.55634874 6.13594614 91.51912731 -1.75 95.75 C-3.4847904 96.53453954 -5.23531934 97.28522579 -7 98 C-7.78632813 98.32097656 -8.57265625 98.64195312 -9.3828125 98.97265625 C-21.48987585 103.05262274 -38.17293905 102.82180177 -50 98 C-59.38183786 93.24988966 -65.55951523 86.22048415 -69.37109375 76.4921875 C-70 74 -70 74 -70 68 C-63.73 68 -57.46 68 -51 68 C-50.46375 69.711875 -49.9275 71.42375 -49.375 73.1875 C-47.39850539 78.5641182 -45.92481856 81.06405047 -41 84 C-32.04708515 87.18663071 -22.87670325 87.21758685 -14.16796875 83.2578125 C-10.22971288 80.9729145 -7.80488498 78.53108483 -6.37890625 74.046875 C-5.73955523 70.59306127 -5.97625092 68.07264425 -7.0625 64.75 C-11.04438356 59.0982943 -16.40258643 57.29368959 -22.9375 55.9375 C-24.04641602 55.69 -24.04641602 55.69 -25.17773438 55.4375 C-28.81679887 54.6357249 -32.4652469 53.90268378 -36.12890625 53.22265625 C-47.2553647 51.14556764 -58.4145479 48.34785204 -65.609375 38.8828125 C-69.67173655 31.92202446 -70.21875126 24.88706172 -69 17 C-66.47054345 9.35819113 -62.73384026 3.45446513 -56 -1 C-54.948125 -1.721875 -53.89625 -2.44375 -52.8125 -3.1875 C-36.40664158 -11.8431295 -15.16581107 -9.95758246 0 0 Z " fill="#E8C477" transform="translate(489,596)"/>
<path d="M0 0 C6.6 0 13.2 0 20 0 C20 8.25 20 16.5 20 25 C26.93 25 33.86 25 41 25 C41 29.95 41 34.9 41 40 C34.07 40 27.14 40 20 40 C20.01773819 48.9104851 20.05649462 57.82020188 20.13209057 66.73038769 C20.16635763 70.86793938 20.19147002 75.00512196 20.19555664 79.14282227 C20.19984034 83.13726411 20.22830757 87.13087337 20.27343178 91.12505531 C20.28640474 92.64759786 20.29071512 94.17024006 20.28615379 95.69283104 C20.28124567 97.8289272 20.30734153 99.96259181 20.34057617 102.09838867 C20.34723801 103.3130632 20.35389984 104.52773773 20.36076355 105.77922058 C21.1841673 109.92792306 22.70018099 111.42914275 26 114 C28.88371451 114.37353815 30.98289962 114.48712853 33.8125 114.3125 C36.184375 114.209375 38.55625 114.10625 41 114 C41 119.28 41 124.56 41 130 C35.77014009 131.04597198 30.99391556 131.25695483 25.6875 131.3125 C24.77548828 131.34150391 23.86347656 131.37050781 22.92382812 131.40039062 C16.73522076 131.45806223 12.13000538 130.58275071 7 127 C4.94140625 124.96484375 4.94140625 124.96484375 3.5625 122.9375 C3.08941406 122.26589844 2.61632812 121.59429688 2.12890625 120.90234375 C-0.24312059 116.90519125 -0.13660165 113.17497466 -0.11352539 108.68286133 C-0.11367142 107.94115189 -0.11381744 107.19944244 -0.1139679 106.43525696 C-0.11327134 103.98415195 -0.10549097 101.53312298 -0.09765625 99.08203125 C-0.09579116 97.38238059 -0.09436768 95.68272939 -0.09336853 93.983078 C-0.08955055 89.50980139 -0.07972638 85.03655724 -0.06866455 80.56329346 C-0.05843499 75.99858031 -0.0538676 71.43386193 -0.04882812 66.86914062 C-0.03810348 57.91274386 -0.02051248 48.95637971 0 40 C-4.62 40 -9.24 40 -14 40 C-14.495 32.575 -14.495 32.575 -15 25 C-10.05 25 -5.1 25 0 25 C0 16.75 0 8.5 0 0 Z " fill="#EAC476" transform="translate(529,565)"/>
<path d="M0 0 C6.6 0 13.2 0 20 0 C20 48.18 20 96.36 20 146 C13.4 146 6.8 146 0 146 C0 97.82 0 49.64 0 0 Z " fill="#F0C978" transform="translate(738,549)"/>
<path d="M0 0 C6.6 0 13.2 0 20 0 C20 48.18 20 96.36 20 146 C13.4 146 6.8 146 0 146 C0 97.82 0 49.64 0 0 Z " fill="#EDC675" transform="translate(697,549)"/>
<path d="M0 0 C6.27 0 12.54 0 19 0 C19 34.65 19 69.3 19 105 C12.73 105 6.46 105 0 105 C0 70.35 0 35.7 0 0 Z " fill="#E9C477" transform="translate(269,590)"/>
<path d="M0 0 C5.61 0 11.22 0 17 0 C17 5.28 17 10.56 17 16 C18.65 16.33 20.3 16.66 22 17 C22 17.66 22 18.32 22 19 C22.99 19 23.98 19 25 19 C23.99714388 21.69999726 22.94037507 24.09778489 21.4375 26.5625 C20.12887975 28.78146478 19.46467564 30.49075157 19 33 C18.34 33 17.68 33 17 33 C17 55.77 17 78.54 17 102 C11.39 102 5.78 102 0 102 C0 68.34 0 34.68 0 0 Z " fill="#E6BC6C" transform="translate(312,591)"/>
<path d="M0 0 C1.66289063 0.00676758 1.66289063 0.00676758 3.359375 0.01367188 C6.07297399 0.02536842 8.78645761 0.04175914 11.5 0.0625 C11.99317683 11.2274754 12.21539235 19.96526526 4.5 28.8125 C-0.8549156 33.75284149 -8.40370215 37.26816417 -15.75 37.5 C-23.97570811 36.54033405 -30.03053431 34.90704306 -35.8125 28.5 C-38.68082901 24.35685809 -38.83553833 21.01169042 -38.5 16.0625 C-36.39747219 10.00227278 -32.18485702 5.96388622 -26.546875 3.0546875 C-18.02093542 -0.4026817 -9.05097315 -0.0703724 0 0 Z " fill="#11100C" transform="translate(642.5,645.9375)"/>
<path d="M0 0 C41.58 0 83.16 0 126 0 C126 9.9 126 19.8 126 30 C95.97 30 65.94 30 35 30 C35 29.67 35 29.34 35 29 C64.7 29 94.4 29 125 29 C125 20.09 125 11.18 125 2 C84.41 2 43.82 2 2 2 C2 59.75 2 117.5 2 177 C43.91 177 85.82 177 129 177 C128.34 171.39 127.68 165.78 127 160 C127 156.37 127 152.74 127 149 C96.64 149 66.28 149 35 149 C35 148.67 35 148.34 35 148 C65.69 148 96.38 148 128 148 C129.96551466 157.82757328 129.59943242 167.98581056 130 178 C87.1 178 44.2 178 0 178 C0 119.26 0 60.52 0 0 Z " fill="#F9ECAB" transform="translate(632,331)"/>
<path d="M0 0 C6.6 0 13.2 0 20 0 C20 48.18 20 96.36 20 146 C13.4 146 6.8 146 0 146 C0 97.82 0 49.64 0 0 Z M2 1 C2 48.19 2 95.38 2 144 C7.28 144 12.56 144 18 144 C18 96.81 18 49.62 18 1 C12.72 1 7.44 1 2 1 Z " fill="#DFCE91" transform="translate(697,549)"/>
<path d="M0 0 C6.6 0 13.2 0 20 0 C20 48.18 20 96.36 20 146 C13.4 146 6.8 146 0 146 C0 97.82 0 49.64 0 0 Z M2 1 C2 48.19 2 95.38 2 144 C7.61 144 13.22 144 19 144 C19 96.81 19 49.62 19 1 C13.39 1 7.78 1 2 1 Z " fill="#F8EAA8" transform="translate(738,549)"/>
<path d="M0 0 C6.27 0 12.54 0 19 0 C19 6.93 19 13.86 19 21 C12.73 21 6.46 21 0 21 C0 14.07 0 7.14 0 0 Z " fill="#ECC97D" transform="translate(269,550)"/>
<path d="M0 0 C6.6 0 13.2 0 20 0 C20 5.28 20 10.56 20 16 C20.66 16.33 21.32 16.66 22 17 C21.01 17 20.02 17 19 17 C19 11.72 19 6.44 19 1 C13.39 1 7.78 1 2 1 C2 34.66 2 68.32 2 103 C7.61 103 13.22 103 19 103 C19 80.23 19 57.46 19 34 C19.33 34 19.66 34 20 34 C20 57.43 20 80.86 20 105 C13.4 105 6.8 105 0 105 C0 70.35 0 35.7 0 0 Z " fill="#F7E29C" transform="translate(310,590)"/>
<path d="M0 0 C27.72 0 55.44 0 84 0 C83.67 0.66 83.34 1.32 83 2 C56.27 2 29.54 2 2 2 C2 15.86 2 29.72 2 44 C32.36 44 62.72 44 94 44 C94 44.33 94 44.66 94 45 C62.98 45 31.96 45 0 45 C0 30.15 0 15.3 0 0 Z " fill="#020201" transform="translate(667,433)"/>
<path d="M0 0 C3.49759571 3.49759571 3.11440939 7.74040958 3.12442017 12.50862122 C3.12082489 13.2106517 3.11722961 13.91268219 3.11352539 14.63598633 C3.11367142 15.38774139 3.11381744 16.13949646 3.1139679 16.91403198 C3.11327395 19.38672826 3.1055059 21.85934821 3.09765625 24.33203125 C3.09579023 26.05124368 3.09436719 27.77045665 3.09336853 29.4896698 C3.08955786 34.00566079 3.07973997 38.52161942 3.06866455 43.03759766 C3.05841924 47.64940961 3.05386423 52.26122681 3.04882812 56.87304688 C3.03811638 65.91538106 3.02053134 74.95768277 3 84 C-3.6 84 -10.2 84 -17 84 C-17.33 58.92 -17.66 33.84 -18 8 C-16 10 -16 10 -15.75949097 12.97390747 C-15.76393219 14.24853851 -15.76837341 15.52316956 -15.77294922 16.83642578 C-15.77265717 17.53897491 -15.77236511 18.24152405 -15.77206421 18.96536255 C-15.77345977 21.29213731 -15.78903128 23.61859354 -15.8046875 25.9453125 C-15.80841683 27.55671005 -15.81126418 29.16810987 -15.81326294 30.7795105 C-15.82090569 35.02433514 -15.84055961 39.2690233 -15.8626709 43.51379395 C-15.88311557 47.8438126 -15.8922617 52.17385326 -15.90234375 56.50390625 C-15.92380497 65.00267383 -15.95899226 73.50130423 -16 82 C-10.39 82 -4.78 82 1 82 C0.67 54.94 0.34 27.88 0 0 Z " fill="#E2D9AD" transform="translate(397,611)"/>
<path d="M0 0 C0 5.28 0 10.56 0 16 C-0.99 16 -1.98 16 -3 16 C-3 11.71 -3 7.42 -3 3 C-6.85421425 2.97292121 -10.70823638 2.95312238 -14.5625 2.9375 C-15.64853516 2.92912109 -16.73457031 2.92074219 -17.85351562 2.91210938 C-24.53222669 2.87298092 -24.53222669 2.87298092 -31.15234375 3.62890625 C-32.56193359 3.81259766 -32.56193359 3.81259766 -34 4 C-34.66 3.34 -35.32 2.68 -36 2 C-24.18454258 -0.90204217 -12.07106885 -0.17579226 0 0 Z " fill="#1B1915" transform="translate(654,646)"/>
<path d="M0 0 C0.33 0 0.66 0 1 0 C1.98634337 8.71478069 2.1917861 17.35939451 2.1875 26.125 C2.1882251 26.80410431 2.1889502 27.48320862 2.18969727 28.18289185 C2.18847157 38.58151742 1.7089486 48.73104992 0 59 C-0.33 59 -0.66 59 -1 59 C-1.02547169 52.0440347 -1.04291782 45.08808154 -1.05493164 38.13208008 C-1.05994306 35.76846873 -1.06675396 33.40486046 -1.07543945 31.04125977 C-1.08764526 27.63296752 -1.09326037 24.22471646 -1.09765625 20.81640625 C-1.10281754 19.76916885 -1.10797882 18.72193146 -1.11329651 17.64295959 C-1.11374699 11.6766413 -0.77689678 5.91678137 0 0 Z " fill="#181716" transform="translate(872,486)"/>
<path d="M0 0 C0 0.33 0 0.66 0 1 C-6.10147815 1.02485094 -12.20292637 1.04293117 -18.30444336 1.05493164 C-20.37703973 1.0599383 -22.44963261 1.06674559 -24.5222168 1.07543945 C-27.51351792 1.08766646 -30.50477206 1.09326513 -33.49609375 1.09765625 C-34.87008583 1.10539818 -34.87008583 1.10539818 -36.27183533 1.11329651 C-41.92771272 1.11378183 -47.38909204 0.7210104 -53 0 C-53 -0.33 -53 -0.66 -53 -1 C-35.32921701 -3.31747974 -17.65403101 -1.70443334 0 0 Z " fill="#1C1B18" transform="translate(546,147)"/>
<path d="M0 0 C0.33 0 0.66 0 1 0 C1 4.62 1 9.24 1 14 C1.99 14.33 2.98 14.66 4 15 C4 15.66 4 16.32 4 17 C3.01 17 2.02 17 1 17 C1.08057261 20.95918677 1.19343945 24.91679837 1.3125 28.875 C1.33505859 30.00292969 1.35761719 31.13085938 1.38085938 32.29296875 C1.41630859 33.36933594 1.45175781 34.44570313 1.48828125 35.5546875 C1.51446533 36.54968262 1.54064941 37.54467773 1.56762695 38.56982422 C1.78165161 39.77276123 1.78165161 39.77276123 2 41 C2.99 41.66 3.98 42.32 5 43 C3.68 43 2.36 43 1 43 C1 58.18 1 73.36 1 89 C0.67 89 0.34 89 0 89 C0 59.63 0 30.26 0 0 Z " fill="#ECC374" transform="translate(634,361)"/>
<path d="M0 0 C3.46181764 1.47524225 5.58149747 3.40691805 8.15234375 6.1328125 C8.92900391 6.93847656 9.70566406 7.74414062 10.50585938 8.57421875 C12.12900504 10.27689204 13.74619709 11.9852605 15.35742188 13.69921875 C16.13537109 14.50230469 16.91332031 15.30539063 17.71484375 16.1328125 C18.41730225 16.87418457 19.11976074 17.61555664 19.84350586 18.37939453 C22.43791506 20.32909319 23.82889449 20.3433659 27 20 C27 20.66 27 21.32 27 22 C26.67 22.33 26.34 22.66 26 23 C27.32 23 28.64 23 30 23 C30 23.99 30 24.98 30 26 C30.66 26.33 31.32 26.66 32 27 C32.40729228 29.32156597 32.74438677 31.6568787 33 34 C29.93792738 31.77303809 27.42383956 29.41018659 25 26.52734375 C20.30050228 21.0959621 15.1743687 16.10142884 10.0625 11.0625 C8.15469053 9.18121858 6.25027523 7.29670807 4.34765625 5.41015625 C3.51242432 4.58652588 2.67719238 3.76289551 1.81665039 2.91430664 C0 1 0 1 0 0 Z " fill="#F4E8BB" transform="translate(753,237)"/>
<path d="M0 0 C2 2 2 2 2.23377991 4.39099121 C2.22632248 5.39311646 2.21886505 6.3952417 2.21118164 7.42773438 C2.20780289 8.56231079 2.20442413 9.69688721 2.20094299 10.86584473 C2.18748337 12.09605347 2.17402374 13.32626221 2.16015625 14.59375 C2.15495468 15.85135132 2.14975311 17.10895264 2.14439392 18.40466309 C2.12956218 21.75115981 2.10664238 25.09738525 2.07904053 28.44378662 C2.04109506 33.16092673 2.01343187 37.87809746 1.99131775 42.59533691 C1.97901208 45.10830908 1.96136212 47.62126154 1.93800354 50.13415527 C1.93147263 51.26873169 1.92494171 52.40330811 1.91821289 53.57226562 C1.90995987 54.57439087 1.90170685 55.57651611 1.89320374 56.60900879 C1.83823785 59.0155235 1.83823785 59.0155235 3 61 C2.91219597 63.04498425 2.75758462 65.08744948 2.5625 67.125 C2.46066406 68.22070312 2.35882813 69.31640625 2.25390625 70.4453125 C2.12822266 71.70988281 2.12822266 71.70988281 2 73 C1.67 73 1.34 73 1 73 C-0.10257521 65.03017436 -0.12892023 57.15527199 -0.09765625 49.12109375 C-0.09578745 47.69906159 -0.09436573 46.27702877 -0.09336853 44.85499573 C-0.08957971 41.14132866 -0.07978117 37.42770169 -0.06866455 33.71405029 C-0.05837158 29.912888 -0.05385414 26.11171913 -0.04882812 22.31054688 C-0.03815505 14.87367978 -0.02112318 7.43684554 0 0 Z " fill="#E8C26A" transform="translate(135,468)"/>
<path d="M0 0 C0.91136719 -0.00773437 1.82273437 -0.01546875 2.76171875 -0.0234375 C8.06476911 -0.00813288 12.48397791 0.51368466 17.5 2.25 C17.5 2.58 17.5 2.91 17.5 3.25 C5.95 3.25 -5.6 3.25 -17.5 3.25 C-17.5 2.92 -17.5 2.59 -17.5 2.25 C-11.58177235 0.20138274 -6.23435076 -0.05290821 0 0 Z " fill="#232018" transform="translate(344.5,324.75)"/>
<path d="M0 0 C0.87454834 0.00523682 1.74909668 0.01047363 2.65014648 0.01586914 C3.59438477 0.0190918 4.53862305 0.02231445 5.51147461 0.02563477 C6.50469727 0.03401367 7.49791992 0.04239258 8.52124023 0.05102539 C9.51833008 0.05553711 10.51541992 0.06004883 11.54272461 0.06469727 C14.01478872 0.07652532 16.48673541 0.0930069 18.95874023 0.11352539 C18.95874023 0.77352539 18.95874023 1.43352539 18.95874023 2.11352539 C12.35874023 2.11352539 5.75874023 2.11352539 -1.04125977 2.11352539 C-1.04125977 10.36352539 -1.04125977 18.61352539 -1.04125977 27.11352539 C-1.37125977 27.11352539 -1.70125977 27.11352539 -2.04125977 27.11352539 C-2.2370856 22.80136058 -2.42153051 18.48878449 -2.60375977 14.17602539 C-2.65983398 12.94432617 -2.7159082 11.71262695 -2.77368164 10.44360352 C-2.82202148 9.2737793 -2.87036133 8.10395508 -2.92016602 6.89868164 C-2.96729736 5.81466064 -3.01442871 4.73063965 -3.06298828 3.61376953 C-3.03304857 0.16868408 -3.03304857 0.16868408 0 0 Z " fill="#29251A" transform="translate(530.041259765625,562.886474609375)"/>
<path d="M0 0 C-1.53621735 0.82275672 -3.07928632 1.63272577 -4.625 2.4375 C-5.48351562 2.88996094 -6.34203125 3.34242188 -7.2265625 3.80859375 C-12.97355056 6.27737031 -18.73552925 6.13013824 -24.875 6.0625 C-25.65875 6.05798828 -26.4425 6.05347656 -27.25 6.04882812 C-29.16670014 6.03714093 -31.08336048 6.01920908 -33 6 C-33.33 5.01 -33.66 4.02 -34 3 C-32.9941687 3.00785522 -32.9941687 3.00785522 -31.96801758 3.01586914 C-28.916188 3.03671605 -25.86437344 3.04968469 -22.8125 3.0625 C-21.75740234 3.07087891 -20.70230469 3.07925781 -19.61523438 3.08789062 C-18.59365234 3.09111328 -17.57207031 3.09433594 -16.51953125 3.09765625 C-15.58214111 3.10289307 -14.64475098 3.10812988 -13.67895508 3.11352539 C-11.01950523 3.00082657 -8.59079427 2.59376649 -6 2 C-6 1.34 -6 0.68 -6 0 C-2.25 -1.125 -2.25 -1.125 0 0 Z " fill="#EBD695" transform="translate(643,691)"/>
<path d="M0 0 C0.66 0.33 1.32 0.66 2 1 C-23.95550592 14.88633989 -23.95550592 14.88633989 -30 17 C-30.99 16.67 -31.98 16.34 -33 16 C-31.68 15.67 -30.36 15.34 -29 15 C-29 14.34 -29 13.68 -29 13 C-28.34 13 -27.68 13 -27 13 C-26.67 12.01 -26.34 11.02 -26 10 C-26 10.66 -26 11.32 -26 12 C-18.83248137 9.38109896 -12.09485979 6.11908638 -5.359375 2.5546875 C-3.6017022 1.64519402 -1.80330567 0.81527955 0 0 Z " fill="#EBE6C0" transform="translate(688,849)"/>
<path d="M0 0 C0.33 0 0.66 0 1 0 C1.33 6.93 1.66 13.86 2 21 C-4.27 21 -10.54 21 -17 21 C-17 20.34 -17 19.68 -17 19 C-11.39 19 -5.78 19 0 19 C0 12.73 0 6.46 0 0 Z " fill="#E9D085" transform="translate(398,674)"/>
<path d="M0 0 C0.66 0.33 1.32 0.66 2 1 C1.25 3.9375 1.25 3.9375 0 7 C-2 7.75 -2 7.75 -4 8 C-4.66 8.66 -5.32 9.32 -6 10 C-6.804375 10.309375 -7.60875 10.61875 -8.4375 10.9375 C-10.97065221 11.9878314 -12.23145796 12.95221448 -14 15 C-14.66 14.67 -15.32 14.34 -16 14 C-14.2725597 12.4147483 -12.54312043 10.83177374 -10.8125 9.25 C-9.36810547 7.92742187 -9.36810547 7.92742187 -7.89453125 6.578125 C-5.32582261 4.29020637 -2.70839628 2.11918393 0 0 Z " fill="#E8D7A4" transform="translate(275,211)"/>
<path d="M0 0 C0.86625 0.928125 0.86625 0.928125 1.75 1.875 C4.33805333 4.31927259 6.85183022 5.48440678 10.0703125 6.9296875 C10.74835938 7.24164062 11.42640625 7.55359375 12.125 7.875 C12.80820312 8.18179688 13.49140625 8.48859375 14.1953125 8.8046875 C16.37775735 10.25020292 17.02820858 11.6055861 18 14 C17.030625 13.2575 16.06125 12.515 15.0625 11.75 C8.48874558 7.56236334 0.529206 6.53150895 -7 5 C-7 4.67 -7 4.34 -7 4 C-5.02 3.67 -3.04 3.34 -1 3 C-0.67 2.01 -0.34 1.02 0 0 Z " fill="#EEDEA3" transform="translate(464,645)"/>
<path d="M0 0 C2.63520741 2.40502363 4.40302943 5.0185849 6.25 8.0625 C6.79140625 8.94035156 7.3328125 9.81820313 7.890625 10.72265625 C8.25671875 11.47417969 8.6228125 12.22570312 9 13 C8.67 13.66 8.34 14.32 8 15 C7.01 13.68 6.02 12.36 5 11 C4.01 11.495 4.01 11.495 3 12 C2.34 11.01 1.68 10.02 1 9 C0.34 8.67 -0.32 8.34 -1 8 C-0.67 5.36 -0.34 2.72 0 0 Z " fill="#F0DCA3" transform="translate(832,306)"/>
<path d="M0 0 C0.66 0 1.32 0 2 0 C2.33 2.64 2.66 5.28 3 8 C4.65 6.35 6.3 4.7 8 3 C8.66 3.33 9.32 3.66 10 4 C8.70910257 5.4590143 7.41725561 6.91718851 6.125 8.375 C5.40570313 9.18710937 4.68640625 9.99921875 3.9453125 10.8359375 C2.66704062 12.25795079 1.35205414 13.64794586 0 15 C0 10.05 0 5.1 0 0 Z " fill="#060505" transform="translate(330,591)"/>
<path d="M0 0 C0.66 0.33 1.32 0.66 2 1 C-3.75 5 -3.75 5 -6 5 C-6 6.32 -6 7.64 -6 9 C-10.95 10.485 -10.95 10.485 -16 12 C-13.71465031 7.42930063 -11.28433338 6.04044213 -7 3.6875 C-6.03707031 3.1296582 -6.03707031 3.1296582 -5.0546875 2.56054688 C-3.40795062 1.63554928 -1.70654812 0.80935554 0 0 Z " fill="#EBD89A" transform="translate(698,825)"/>
<path d="M0 0 C-0.825 0.391875 -1.65 0.78375 -2.5 1.1875 C-3.325 1.785625 -4.15 2.38375 -5 3 C-5.41780879 5.62694422 -5.41780879 5.62694422 -5 8 C-5.99 8.33 -6.98 8.66 -8 9 C-8 8.34 -8 7.68 -8 7 C-8.99 7 -9.98 7 -11 7 C-11.33 6.01 -11.66 5.02 -12 4 C-10.56988027 3.13353333 -9.13059381 2.28218171 -7.6875 1.4375 C-6.48673828 0.72400391 -6.48673828 0.72400391 -5.26171875 -0.00390625 C-3 -1 -3 -1 0 0 Z " fill="#EFC773" transform="translate(349,169)"/>
<path d="M0 0 C0.33 0 0.66 0 1 0 C1 5.61 1 11.22 1 17 C1.66 17 2.32 17 3 17 C2.67 20.96 2.34 24.92 2 29 C1.67 29 1.34 29 1 29 C0.1589522 25.3535194 -0.11764968 22.00049093 -0.09765625 18.26171875 C-0.09443359 17.19501953 -0.09121094 16.12832031 -0.08789062 15.02929688 C-0.07951172 13.92650391 -0.07113281 12.82371094 -0.0625 11.6875 C-0.05798828 10.56537109 -0.05347656 9.44324219 -0.04882812 8.28710938 C-0.03707313 5.5246849 -0.02064077 2.76237002 0 0 Z " fill="#E1BD6F" transform="translate(293,410)"/>
<path d="M0 0 C3 0 3 0 5 1 C4.67 2.65 4.34 4.3 4 6 C3.13375 5.773125 2.2675 5.54625 1.375 5.3125 C-2.69636204 4.93552203 -4.47713055 6.07843485 -8 8 C-8.66 7.67 -9.32 7.34 -10 7 C-3.375 3 -3.375 3 0 3 C0 2.01 0 1.02 0 0 Z " fill="#EAC271" transform="translate(667,842)"/>
<path d="M0 0 C0.33 0 0.66 0 1 0 C0.979375 1.0725 0.95875 2.145 0.9375 3.25 C0.8238724 6.79425802 0.8238724 6.79425802 1.6875 9.25 C1.790625 9.8275 1.89375 10.405 2 11 C1 12 0 13 -1 14 C-1.74386068 16.30988315 -2.42190703 18.64315944 -3 21 C-4.06140282 17.81579155 -3.95892549 16.91540891 -3.22265625 13.76953125 C-3.03896484 12.96708984 -2.85527344 12.16464844 -2.66601562 11.33789062 C-2.36727539 10.08782227 -2.36727539 10.08782227 -2.0625 8.8125 C-1.86720703 7.96751953 -1.67191406 7.12253906 -1.47070312 6.25195312 C-0.98758736 4.166307 -0.49472096 2.08292386 0 0 Z " fill="#EFE3B1" transform="translate(867,580)"/>
<path d="M0 0 C4.67105792 1.55701931 8.08705685 4.08447373 12 7 C11.01 7 10.02 7 9 7 C8.34 7.226875 7.68 7.45375 7 7.6875 C6.34 7.790625 5.68 7.89375 5 8 C3.25 6.6875 3.25 6.6875 2 5 C2 4.34 2 3.68 2 3 C1.34 2.01 0.68 1.02 0 0 Z " fill="#F4E1A7" transform="translate(722,193)"/>
<path d="M0 0 C0.66 0.66 1.32 1.32 2 2 C1.81870815 4.92991019 1.53430659 7.72692113 1.125 10.625 C1.02058594 11.42679687 0.91617188 12.22859375 0.80859375 13.0546875 C0.54890412 15.03777197 0.27571688 17.01908028 0 19 C-2.5553479 14.42673848 -2.64955774 9.97340654 -1.546875 4.92578125 C-1.07674544 3.27025358 -0.54422364 1.63267092 0 0 Z " fill="#1E1D1B" transform="translate(137,443)"/>
<path d="M0 0 C0.33 0 0.66 0 1 0 C1.25398309 4.29057953 1.47398533 8.58223134 1.6875 12.875 C1.76033203 14.09832031 1.83316406 15.32164062 1.90820312 16.58203125 C1.96298828 17.74863281 2.01777344 18.91523438 2.07421875 20.1171875 C2.13182373 21.19597168 2.18942871 22.27475586 2.2487793 23.38623047 C2.12563354 24.68004639 2.12563354 24.68004639 2 26 C1.01 26.66 0.02 27.32 -1 28 C-0.67 18.76 -0.34 9.52 0 0 Z " fill="#E9BE67" transform="translate(394,409)"/>
<path d="M0 0 C-1.6875 2.0625 -1.6875 2.0625 -4 4 C-5.67654729 3.72057545 -7.34259285 3.37668344 -9 3 C-11.06338746 3.39003056 -13.04213172 3.94938944 -15.0625 4.51953125 C-17.4138492 5.10262793 -19.58850492 5.15071844 -22 5 C-18.6338436 3.10705142 -15.31729781 2.23447973 -11.5625 1.375 C-10.45003906 1.11460937 -9.33757812 0.85421875 -8.19140625 0.5859375 C-5.3616884 0.06640546 -2.86450045 -0.11779254 0 0 Z " fill="#EEE5B7" transform="translate(442,136)"/>
<path d="M0 0 C-8.91 1.485 -8.91 1.485 -18 3 C-18.33 2.01 -18.66 1.02 -19 0 C-18.00419922 -0.09087891 -18.00419922 -0.09087891 -16.98828125 -0.18359375 C-11.51663744 -0.67951753 -11.51663744 -0.67951753 -6.125 -1.6875 C-4 -2 -4 -2 0 0 Z " fill="#1A1B1C" transform="translate(453,134)"/>
<path d="M0 0 C-2.23495428 2.23495428 -4.02414536 3.0024791 -6.9375 4.1875 C-7.81277344 4.55230469 -8.68804688 4.91710937 -9.58984375 5.29296875 C-12 6 -12 6 -15 5 C-14.34 5 -13.68 5 -13 5 C-13 4.34 -13 3.68 -13 3 C-8.37802694 0.78145293 -5.23175837 -0.38281159 0 0 Z " fill="#EFDB9D" transform="translate(655,866)"/>
<path d="M0 0 C0.33 0.99 0.66 1.98 1 3 C-0.76956458 5.14210449 -1.87575652 5.96060573 -4.5625 6.8125 C-5.7690625 6.9053125 -5.7690625 6.9053125 -7 7 C-7.66 6.34 -8.32 5.68 -9 5 C-7.87926138 4.16094435 -6.75325453 3.32892169 -5.625 2.5 C-4.99851562 2.0359375 -4.37203125 1.571875 -3.7265625 1.09375 C-2 0 -2 0 0 0 Z " fill="#F0C874" transform="translate(724,810)"/>
<path d="M0 0 C-0.33 0.99 -0.66 1.98 -1 3 C-6.61 3 -12.22 3 -18 3 C-18 2.67 -18 2.34 -18 2 C-11.84629161 0.176679 -6.40353322 -0.2361959 0 0 Z " fill="#171611" transform="translate(636,585)"/>
<path d="M0 0 C0.33 0.66 0.66 1.32 1 2 C-2.3618226 6.25171681 -5.74828319 9.6381774 -10 13 C-8.16490101 7.32787586 -4.97304587 3.31536392 0 0 Z " fill="#EDD79E" transform="translate(213,277)"/>
<path d="M0 0 C0.66 0.33 1.32 0.66 2 1 C3.00976752 6.0488376 3.48895013 9.3149174 1 14 C0.34 13.34 -0.32 12.68 -1 12 C-0.9765625 9.1796875 -0.9765625 9.1796875 -0.625 5.875 C-0.51414062 4.77929688 -0.40328125 3.68359375 -0.2890625 2.5546875 C-0.14597656 1.29011719 -0.14597656 1.29011719 0 0 Z " fill="#1B1916" transform="translate(481,660)"/>
<path d="M0 0 C0.33 0 0.66 0 1 0 C1 1.98 1 3.96 1 6 C1.66 6 2.32 6 3 6 C2.67 10.62 2.34 15.24 2 20 C1.67 20 1.34 20 1 20 C-0.03026944 13.30324864 -0.10152799 6.7685324 0 0 Z " fill="#E6C274" transform="translate(150,537)"/>
<path d="M0 0 C0.66 0 1.32 0 2 0 C1.48517081 5.852795 0.54642808 11.3297637 -1 17 C-1.33 17 -1.66 17 -2 17 C-2 15.35 -2 13.7 -2 12 C-2.99 11.67 -3.98 11.34 -5 11 C-3.68 10.67 -2.36 10.34 -1 10 C-0.67 6.7 -0.34 3.4 0 0 Z " fill="#EFC56E" transform="translate(159,414)"/>
<path d="M0 0 C0.66 0.33 1.32 0.66 2 1 C1.34 2.98 0.68 4.96 0 7 C-2.31 6.67 -4.62 6.34 -7 6 C-4.74259377 3.66475218 -2.7194239 1.81294927 0 0 Z " fill="#EFD797" transform="translate(710,817)"/>
<path d="M0 0 C0 4.0790169 -1.48741752 5.85927189 -4 9 C-5.32 9 -6.64 9 -8 9 C-8.33 9.66 -8.66 10.32 -9 11 C-8.875 8.75 -8.875 8.75 -8 6 C-5.0625 3.8125 -5.0625 3.8125 -2 2 C-1.34 1.34 -0.68 0.68 0 0 Z " fill="#E7D293" transform="translate(481,674)"/>
<path d="M0 0 C0 0.99 0 1.98 0 3 C1.32 3.66 2.64 4.32 4 5 C2.58249437 4.88490339 1.16598831 4.75746342 -0.25 4.625 C-1.03890625 4.55539062 -1.8278125 4.48578125 -2.640625 4.4140625 C-5.085877 3.98492887 -6.84836903 3.21399362 -9 2 C-3.375 -1.125 -3.375 -1.125 0 0 Z " fill="#F3DEA0" transform="translate(430,881)"/>
<path d="M0 0 C0.66 0.99 1.32 1.98 2 3 C1.5359375 3.40992188 1.071875 3.81984375 0.59375 4.2421875 C-1.60414896 6.66634077 -2.20790032 9.17567604 -3.15625 12.2578125 C-3.4346875 12.83273437 -3.713125 13.40765625 -4 14 C-4.99 14.33 -5.98 14.66 -7 15 C-5.45454854 9.52067211 -2.84456788 4.88570819 0 0 Z " fill="#EEE2B4" transform="translate(180,325)"/>
<path d="M0 0 C-0.185625 0.61875 -0.37125 1.2375 -0.5625 1.875 C-1.23686176 4.04160178 -1.23686176 4.04160178 0 6 C-3.36591866 4.55746343 -5.51047079 2.66735273 -8 0 C-4.94736336 -0.98120464 -3.05263664 -0.98120464 0 0 Z " fill="#F3DDA2" transform="translate(734,215)"/>
<path d="M0 0 C5.40489519 1.52012677 8.98492628 5.27385218 13 9 C10.16032769 9 7.76264289 8.59732819 5 8 C4.67 6.68 4.34 5.36 4 4 C3.34 4 2.68 4 2 4 C1.34 2.68 0.68 1.36 0 0 Z " fill="#ECE2BC" transform="translate(742,207)"/>
<path d="M0 0 C0.99 1.485 0.99 1.485 2 3 C2.99 3 3.98 3 5 3 C4.938125 3.7425 4.87625 4.485 4.8125 5.25 C5.03094296 8.45383006 5.90250005 9.64031256 8 12 C3.78456242 10.49448658 2.13950875 7.82055134 0 4 C0 2.68 0 1.36 0 0 Z " fill="#E1D39B" transform="translate(530,680)"/>
<path d="M0 0 C0.33 0.66 0.66 1.32 1 2 C0.22265625 3.7265625 0.22265625 3.7265625 -0.9375 5.625 C-1.618125 6.73875 -2.29875 7.8525 -3 9 C-3.99 8.34 -4.98 7.68 -6 7 C-5.67 5.68 -5.34 4.36 -5 3 C-3.68 3 -2.36 3 -1 3 C-0.67 2.01 -0.34 1.02 0 0 Z " fill="#EEC571" transform="translate(187,344)"/>
<path d="M0 0 C3.23861303 1.44424635 5.61969163 3.25772247 8.25 5.625 C8.95640625 6.25664062 9.6628125 6.88828125 10.390625 7.5390625 C10.92171875 8.02117187 11.4528125 8.50328125 12 9 C11.67 9.66 11.34 10.32 11 11 C10.113125 10.030625 9.22625 9.06125 8.3125 8.0625 C5.67384791 5.39877758 3.85668285 4.2268637 0 4 C0 2.68 0 1.36 0 0 Z " fill="#DDD2A0" transform="translate(394,344)"/>
<path d="M0 0 C0 0.66 0 1.32 0 2 C-1.74639757 2.39143394 -3.49735918 2.76254287 -5.25 3.125 C-6.22453125 3.33382812 -7.1990625 3.54265625 -8.203125 3.7578125 C-11.23442766 4.0202996 -12.48017346 3.61988849 -15 2 C-13.06302033 1.66365624 -11.12539514 1.33102835 -9.1875 1 C-7.56908203 0.7215625 -7.56908203 0.7215625 -5.91796875 0.4375 C-3 0 -3 0 0 0 Z " fill="#171818" transform="translate(424,138)"/>
<path d="M0 0 C1.98 0 3.96 0 6 0 C5.6875 1.875 5.6875 1.875 5 4 C4.01 4.66 3.02 5.32 2 6 C2 5.34 2 4.68 2 4 C1.34 4 0.68 4 0 4 C0 2.68 0 1.36 0 0 Z " fill="#E3C88C" transform="translate(776,777)"/>
<path d="M0 0 C0.33 1.32 0.66 2.64 1 4 C0.34 4 -0.32 4 -1 4 C-1.268125 4.598125 -1.53625 5.19625 -1.8125 5.8125 C-2.98493467 7.97224808 -4.19369282 9.35790256 -6 11 C-5.55530671 5.96014269 -3.28656638 3.62365012 0 0 Z " fill="#E8BD69" transform="translate(596,601)"/>
<path d="M0 0 C2.375 0.375 2.375 0.375 5 2 C6.08008783 5.27825654 6.57730231 8.58056494 7 12 C3.79390698 8.99601026 2.04406702 5.87667883 0 2 C0 1.34 0 0.68 0 0 Z " fill="#EEDDA2" transform="translate(539,471)"/>
<path d="M0 0 C0.33 0 0.66 0 1 0 C1.12375 0.969375 1.2475 1.93875 1.375 2.9375 C1.684375 4.4534375 1.684375 4.4534375 2 6 C2.66 6.33 3.32 6.66 4 7 C3 9 3 9 1 10 C0.34 10.99 -0.32 11.98 -1 13 C-1.0272415 11.58344207 -1.04650467 10.16672955 -1.0625 8.75 C-1.07410156 7.96109375 -1.08570313 7.1721875 -1.09765625 6.359375 C-1.00385306 4.09308998 -0.63241063 2.1711105 0 0 Z " fill="#ECDAA4" transform="translate(140,435)"/>
<path d="M0 0 C0.33 0.66 0.66 1.32 1 2 C0.00390625 3.9453125 0.00390625 3.9453125 -1.4375 6.125 C-1.91058594 6.84945313 -2.38367188 7.57390625 -2.87109375 8.3203125 C-3.24363281 8.87460937 -3.61617187 9.42890625 -4 10 C-5.53445094 6.93109813 -4.54984289 4.29905734 -4 1 C-2.68 0.67 -1.36 0.34 0 0 Z " fill="#E6D3A0" transform="translate(205,314)"/>
<path d="M0 0 C0.99 0.66 1.98 1.32 3 2 C0.69 4.31 -1.62 6.62 -4 9 C-4.33 8.01 -4.66 7.02 -5 6 C-2.66666667 1.33333333 -2.66666667 1.33333333 0 0 Z " fill="#EBC26B" transform="translate(252,250)"/>
<path d="M0 0 C-1.6188996 1.03048037 -3.24532489 2.04914678 -4.875 3.0625 C-5.77992188 3.63097656 -6.68484375 4.19945312 -7.6171875 4.78515625 C-8.40351562 5.18605469 -9.18984375 5.58695313 -10 6 C-10.66 5.67 -11.32 5.34 -12 5 C-11.01 4.34 -10.02 3.68 -9 3 C-8.67 2.01 -8.34 1.02 -8 0 C-2.25 -1.125 -2.25 -1.125 0 0 Z " fill="#EBDDAB" transform="translate(704,842)"/>
<path d="M0 0 C1.04220703 0.72123047 1.04220703 0.72123047 2.10546875 1.45703125 C5.36370494 3.1938778 7.64789746 3.48614821 11.3125 3.6875 C12.91544922 3.78611328 12.91544922 3.78611328 14.55078125 3.88671875 C15.35902344 3.92410156 16.16726563 3.96148438 17 4 C17 4.33 17 4.66 17 5 C14.91673869 5.02709444 12.83337559 5.04643873 10.75 5.0625 C9.00976562 5.07990234 9.00976562 5.07990234 7.234375 5.09765625 C4.59022872 5.01782092 2.50173909 4.78643778 0 4 C0 2.68 0 1.36 0 0 Z " fill="#F5E8A4" transform="translate(550,676)"/>
<path d="M0 0 C-3.44175522 2.14699969 -5.7720292 2.09856795 -9.75 1.625 C-10.73484375 1.51414062 -11.7196875 1.40328125 -12.734375 1.2890625 C-13.48203125 1.19367187 -14.2296875 1.09828125 -15 1 C-15 0.67 -15 0.34 -15 0 C-9.77254141 -1.2063366 -5.23471686 -0.75612577 0 0 Z " fill="#1F1D1A" transform="translate(463,650)"/>
<path d="M0 0 C1.33332095 2.6666419 0.67102033 4.16680303 0 7 C-1.98 7.33 -3.96 7.66 -6 8 C-6 6 -6 6 -3.5625 3.4375 C-2.716875 2.633125 -1.87125 1.82875 -1 1 C-0.67 0.67 -0.34 0.34 0 0 Z " fill="#F0C571" transform="translate(235,251)"/>
<path d="M0 0 C1.98 0 3.96 0 6 0 C3.42215154 2.64752004 1.08351902 4.94432065 -2 7 C-1.125 2.25 -1.125 2.25 0 0 Z " fill="#E7C175" transform="translate(635,856)"/>
<path d="M0 0 C0.66 0.33 1.32 0.66 2 1 C2 1.66 2 2.32 2 3 C2.66 3 3.32 3 4 3 C4 3.66 4 4.32 4 5 C3.01 5.33 2.02 5.66 1 6 C0.34 6.99 -0.32 7.98 -1 9 C-2.0326802 6.21176345 -2.04509293 5.1322726 -1.0625 2.25 C-0.711875 1.5075 -0.36125 0.765 0 0 Z " fill="#EDD189" transform="translate(653,663)"/>
<path d="M0 0 C0.33 0.66 0.66 1.32 1 2 C1.66 2.33 2.32 2.66 3 3 C1.34385343 3.38218767 -0.32457024 3.71395102 -2 4 C-2.33 3.67 -2.66 3.34 -3 3 C-4.51469448 2.76807135 -6.03754562 2.58784762 -7.5625 2.4375 C-8.38878906 2.35371094 -9.21507812 2.26992188 -10.06640625 2.18359375 C-10.70449219 2.12300781 -11.34257813 2.06242188 -12 2 C-12 1.67 -12 1.34 -12 1 C-6.06 0.505 -6.06 0.505 0 0 Z " fill="#E7BD6A" transform="translate(639,588)"/>
<path d="M0 0 C0.66 0.33 1.32 0.66 2 1 C-0.64 3.97 -3.28 6.94 -6 10 C-6.66 9.67 -7.32 9.34 -8 9 C-6.046875 6.75390625 -6.046875 6.75390625 -4.09375 4.5078125 C-2.80427542 3.04063579 -2.80427542 3.04063579 -3 1 C-2.01 0.67 -1.02 0.34 0 0 Z " fill="#040506" transform="translate(379,465)"/>
<path d="M0 0 C1.44977894 2.34112451 2.04314411 3.5796929 1.7578125 6.359375 C1.54898438 7.14828125 1.34015625 7.9371875 1.125 8.75 C0.92132813 9.54921875 0.71765625 10.3484375 0.5078125 11.171875 C0.34023437 11.77515625 0.17265625 12.3784375 0 13 C-0.33 13 -0.66 13 -1 13 C-1.33 9.04 -1.66 5.08 -2 1 C-1.34 0.67 -0.68 0.34 0 0 Z M2 2 C2.99 2.495 2.99 2.495 4 3 C3.01 3.495 3.01 3.495 2 4 C2 3.34 2 2.68 2 2 Z " fill="#DFBC73" transform="translate(140,444)"/>
<path d="M0 0 C0.99 1.32 1.98 2.64 3 4 C1.84826645 6.46800047 0.95216435 8.04783565 -1 10 C-1.125 2.25 -1.125 2.25 0 0 Z " fill="#EFC975" transform="translate(142,432)"/>
<path d="M0 0 C-1.65 0.33 -3.3 0.66 -5 1 C-5 1.99 -5 2.98 -5 4 C-7.31 3.67 -9.62 3.34 -12 3 C-8.62803192 -0.37196808 -4.5120049 -1.50400163 0 0 Z " fill="#F1C871" transform="translate(405,147)"/>
<path d="M0 0 C0.66 1.32 1.32 2.64 2 4 C-0.97 6.475 -0.97 6.475 -4 9 C-4.66 8.67 -5.32 8.34 -6 8 C-5.34 7.01 -4.68 6.02 -4 5 C-3.01 5 -2.02 5 -1 5 C-0.67 3.35 -0.34 1.7 0 0 Z " fill="#F2DCA1" transform="translate(743,809)"/>
<path d="M0 0 C0.33 0.66 0.66 1.32 1 2 C-0.125 4.625 -0.125 4.625 -2 7 C-4.6875 7.3125 -4.6875 7.3125 -7 7 C-4.66666667 4.66666667 -2.33333333 2.33333333 0 0 Z " fill="#F0C872" transform="translate(746,791)"/>
<path d="M0 0 C2.7710688 2.34591852 3.52059284 4.14776201 4.1875 7.6875 C4.34605469 8.49574219 4.50460937 9.30398438 4.66796875 10.13671875 C4.77753906 10.75160156 4.88710938 11.36648438 5 12 C2.4375 9.8125 2.4375 9.8125 0 7 C0.1875 4.1875 0.1875 4.1875 1 2 C0.34 1.67 -0.32 1.34 -1 1 C-0.67 0.67 -0.34 0.34 0 0 Z " fill="#EABD67" transform="translate(417,375)"/>
<path d="M0 0 C5.57142857 5.14285714 5.57142857 5.14285714 6 9 C5.5875 8.505 5.175 8.01 4.75 7.5 C2.87797662 5.56613908 2.87797662 5.56613908 -1 6 C-0.67 4.02 -0.34 2.04 0 0 Z " fill="#F0E1B5" transform="translate(820,288)"/>
<path d="M0 0 C0.66 0.33 1.32 0.66 2 1 C1.67 2.65 1.34 4.3 1 6 C0.34 6 -0.32 6 -1 6 C-1 5.34 -1 4.68 -1 4 C-2.65 4.66 -4.3 5.32 -6 6 C-4 4 -2 2 0 0 Z " fill="#EDDCA8" transform="translate(725,806)"/>
<path d="M0 0 C0.99 0 1.98 0 3 0 C3.99 2.31 4.98 4.62 6 7 C2.63279613 5.60667426 1.0140476 4.0210714 -1 1 C-0.67 0.67 -0.34 0.34 0 0 Z " fill="#ECC16B" transform="translate(256,789)"/>
<path d="M0 0 C0.99 0.33 1.98 0.66 3 1 C3.20140476 4.62528568 2.85776765 6.86501708 1 10 C-1.42857143 3.71428571 -1.42857143 3.71428571 0 0 Z " fill="#ECD186" transform="translate(420,665)"/>
<path d="M0 0 C-1.98 0.66 -3.96 1.32 -6 2 C-6.33 3.65 -6.66 5.3 -7 7 C-7.99 6.01 -8.98 5.02 -10 4 C-6.87839899 0.56623888 -4.64008112 -1.54669371 0 0 Z " fill="#EED997" transform="translate(351,591)"/>
<path d="M0 0 C3.3 0.33 6.6 0.66 10 1 C10 1.33 10 1.66 10 2 C8.41913952 2.36504603 6.83516093 2.71660506 5.25 3.0625 C4.36828125 3.25972656 3.4865625 3.45695313 2.578125 3.66015625 C0.01320972 3.99825872 -1.57091639 3.81158635 -4 3 C-2.68 2.34 -1.36 1.68 0 1 C0 0.67 0 0.34 0 0 Z " fill="#E4BD6F" transform="translate(615,589)"/>
<path d="M0 0 C0.66 0 1.32 0 2 0 C3.15837626 4.05431692 2.83691257 6.21812119 1 10 C0.67 10 0.34 10 0 10 C0 6.7 0 3.4 0 0 Z M3 0 C4 4 4 4 4 4 Z " fill="#0A0A07" transform="translate(156,443)"/>
<path d="M0 0 C0 0.99 0 1.98 0 3 C0.3062434 4.33981486 0.63451555 5.67511887 1 7 C-0.98 7.66 -2.96 8.32 -5 9 C-3.7508258 5.54074837 -2.32472205 2.85306797 0 0 Z " fill="#EFDEA7" transform="translate(277,360)"/>
<path d="M0 0 C1.32 0.33 2.64 0.66 4 1 C4.33 3.31 4.66 5.62 5 8 C2.5 6.25 2.5 6.25 0 4 C0 2.68 0 1.36 0 0 Z " fill="#F0DBA3" transform="translate(781,263)"/>
<path d="M0 0 C-0.33 2.97 -0.66 5.94 -1 9 C-2.33333333 6.33333333 -3.66666667 3.66666667 -5 1 C-1.125 0 -1.125 0 0 0 Z " fill="#EFC976" transform="translate(884,575)"/>
<path d="M0 0 C0.33 0 0.66 0 1 0 C0.67 4.29 0.34 8.58 0 13 C-0.33 13 -0.66 13 -1 13 C-1.33 10.03 -1.66 7.06 -2 4 C-1.34 4 -0.68 4 0 4 C0 2.68 0 1.36 0 0 Z " fill="#F3E6B2" transform="translate(886,563)"/>
<path d="M0 0 C0.33 0 0.66 0 1 0 C1.33 3.63 1.66 7.26 2 11 C1.01 11 0.02 11 -1 11 C-1.125 3.375 -1.125 3.375 0 0 Z " fill="#171614" transform="translate(870,461)"/>
<path d="M0 0 C0.33 0.66 0.66 1.32 1 2 C1.66 2 2.32 2 3 2 C3 2.66 3 3.32 3 4 C0.1875 5.5625 0.1875 5.5625 -3 7 C-3.99 6.67 -4.98 6.34 -6 6 C-4.68 5.67 -3.36 5.34 -2 5 C-2 4.34 -2 3.68 -2 3 C-1.34 3 -0.68 3 0 3 C0 2.01 0 1.02 0 0 Z " fill="#EEDCA2" transform="translate(661,859)"/>
<path d="M0 0 C1.27351308 2.54702616 0.80191925 3.4282945 0.0625 6.125 C-0.13214844 6.84945312 -0.32679688 7.57390625 -0.52734375 8.3203125 C-0.68332031 8.87460937 -0.83929687 9.42890625 -1 10 C-1.66 9.67 -2.32 9.34 -3 9 C-3 4.72290301 -2.29379749 3.44069624 0 0 Z " fill="#EDDBA9" transform="translate(819,703)"/>
<path d="M0 0 C0.33 0 0.66 0 1 0 C2.20577428 4.94367454 1.6290678 8.20862412 0 13 C-0.33 13 -0.66 13 -1 13 C-1.02708567 11.39592672 -1.04643483 9.7917215 -1.0625 8.1875 C-1.07410156 7.29417969 -1.08570313 6.40085937 -1.09765625 5.48046875 C-1 3 -1 3 0 0 Z " fill="#EFC773" transform="translate(873,548)"/>
<path d="M0 0 C0.33 0.66 0.66 1.32 1 2 C0.67 2.66 0.34 3.32 0 4 C0.66 4.33 1.32 4.66 2 5 C1.67 5.66 1.34 6.32 1 7 C-1.5625 7.625 -1.5625 7.625 -4 8 C-2.87548273 5.0280615 -1.77706209 2.66559313 0 0 Z " fill="#E8D7A7" transform="translate(195,300)"/>
<path d="M0 0 C1.65 0.33 3.3 0.66 5 1 C4.67 2.32 4.34 3.64 4 5 C1.525 4.01 1.525 4.01 -1 3 C-0.67 2.01 -0.34 1.02 0 0 Z " fill="#F4DC9D" transform="translate(697,193)"/>
<path d="M0 0 C0.66 0.33 1.32 0.66 2 1 C1.01 2.485 1.01 2.485 0 4 C0.33 4.66 0.66 5.32 1 6 C-0.32 6 -1.64 6 -3 6 C-3.33 4.68 -3.66 3.36 -4 2 C-2.125 0.9375 -2.125 0.9375 0 0 Z " fill="#EBC36E" transform="translate(649,852)"/>
<path d="M0 0 C0.66 0.33 1.32 0.66 2 1 C1.375 2.9375 1.375 2.9375 0 5 C-3.125 5.75 -3.125 5.75 -6 6 C-4 4 -2 2 0 0 Z " fill="#F0E0A7" transform="translate(733,800)"/>
<path d="M0 0 C2 3.75 2 3.75 2 6 C2.66 6 3.32 6 4 6 C3.67 7.32 3.34 8.64 3 10 C0.86746245 7.40386733 -0.55075623 5.36932827 -1 2 C-0.67 1.34 -0.34 0.68 0 0 Z " fill="#161615" transform="translate(185,661)"/>
<path d="M0 0 C0.66 0.33 1.32 0.66 2 1 C-3.17578125 4.22265625 -3.17578125 4.22265625 -5 5 C-5.99 4.67 -6.98 4.34 -8 4 C-7.67 3.01 -7.34 2.02 -7 1 C-6.401875 1.20625 -5.80375 1.4125 -5.1875 1.625 C-2.71549154 2.30671915 -2.71549154 2.30671915 0 0 Z " fill="#E5D091" transform="translate(342,606)"/>
<path d="M0 0 C0.99 0.33 1.98 0.66 3 1 C1.75023244 4.65316671 1.32901247 5.78065836 -2 8 C-1.125 1.125 -1.125 1.125 0 0 Z " fill="#F0DFAE" transform="translate(812,738)"/>
<path d="M0 0 C2.15377564 2.62198774 3.40072174 4.64404172 4 8 C3.01 7.67 2.02 7.34 1 7 C-0.1875 3.9375 -0.1875 3.9375 -1 1 C-0.67 0.67 -0.34 0.34 0 0 Z " fill="#F5DFA5" transform="translate(186,669)"/>
<path d="M0 0 C-0.61277612 2.96175123 -1.25372522 4.38058783 -3 7 C-3.33 5.02 -3.66 3.04 -4 1 C-2 0 -2 0 0 0 Z " fill="#EFC677" transform="translate(144,560)"/>
<path d="M0 0 C2.32590854 3.63423209 2.16265833 6.77088331 2 11 C0.4375 9.4375 0.4375 9.4375 -1 7 C-0.6875 3.25 -0.6875 3.25 0 0 Z " fill="#F8ECB9" transform="translate(884,441)"/>
<path d="M0 0 C7.42857143 -0.14285714 7.42857143 -0.14285714 11 1 C11 1.66 11 2.32 11 3 C10.01 3.33 9.02 3.66 8 4 C7.34 3.34 6.68 2.68 6 2 C4.01178687 1.60235737 2.01055661 1.26224651 0 1 C0 0.67 0 0.34 0 0 Z " fill="#F2DCA0" transform="translate(442,135)"/>
</svg>
